<?xml version="1.0" standalone="no"?><!DOCTYPE svg PUBLIC "-//W3C//DTD SVG 1.1//EN" "http://www.w3.org/Graphics/SVG/1.1/DTD/svg11.dtd"><svg t="1751978998294" class="icon" viewBox="0 0 8302 1024" version="1.1" xmlns="http://www.w3.org/2000/svg" p-id="8054" xmlns:xlink="http://www.w3.org/1999/xlink" width="2075.5" height="256"><path d="M2590.443243 513.383784v154.983784c0 5.535135-134.227027 71.956757-239.394594 71.956756-88.562162 1.383784-172.972973-34.594595-233.85946-96.864865a373.56627 373.56627 0 0 1-114.854054-269.837837C2002.335135 178.508108 2150.4 5.535135 2348.281081 0h9.686487c73.340541 0 143.913514 27.675676 197.881081 77.491892 8.302703 5.535135 15.221622 13.837838 17.989189 24.908108v70.572973h-5.535135v-2.767568c-13.837838-55.351351-49.816216-102.4-101.016217-128.691891C2438.227027 27.675676 2405.016216 19.372973 2373.189189 16.605405c-204.8-12.454054-256 226.940541-256 355.632433 0 148.064865 101.016216 345.945946 251.848649 345.945946 121.772973 0 178.508108-94.097297 202.032432-157.751352 4.151351-15.221622 9.686486-31.827027 12.454054-47.048648h6.918919z m260.151352 196.497297V15.221622h-143.913514v5.535135c5.535135 0 58.118919 9.686486 58.118919 44.281081v644.843243c0 12.454054-9.686486 22.140541-22.140541 22.140541v6.918919h130.075676v-6.918919c-11.07027 0-20.756757-8.302703-20.756757-20.756757-1.383784 0-1.383784 0-1.383783-1.383784m4996.843243 0V15.221622h-143.913514v5.535135c5.535135 0 59.502703 9.686486 59.502703 44.281081v644.843243c0 12.454054-9.686486 22.140541-22.140541 22.140541v6.918919h128.691892v-6.918919c-11.07027 0-20.756757-8.302703-22.14054-20.756757-1.383784 0-1.383784 0 0-1.383784M577.037838 23.524324v6.918919c29.059459 0 41.513514 17.989189 33.210811 40.12973L406.832432 608.864865 206.183784 84.410811C190.962162 44.281081 217.254054 30.443243 249.081081 30.443243V23.524324H0v6.918919c45.664865-1.383784 88.562162 24.908108 105.167568 67.805406l244.929729 640.691892h24.908108L625.47027 76.108108c11.07027-26.291892 37.362162-44.281081 66.421622-45.664865V23.524324h-114.854054zM8144.951351 738.940541c101.016216 0 157.751351-69.189189 157.751352-141.145946 0-59.502703-44.281081-96.864865-106.551352-116.237838l-73.34054-24.908108c-58.118919-17.989189-88.562162-35.978378-88.562162-78.875676 0-48.432432 37.362162-78.875676 101.016216-78.875676 67.805405 0 92.713514 52.583784 112.086486 112.086487h5.535135v-83.027027c-33.210811-27.675676-73.340541-42.897297-116.237837-42.897298-81.643243 0-143.913514 56.735135-143.913514 131.45946 0 88.562162 58.118919 107.935135 98.248649 121.772973l77.491892 26.291892c33.210811 12.454054 65.037838 27.675676 65.037838 77.491892 4.151351 41.513514-27.675676 78.875676-69.18919 83.027027h-12.454054c-101.016216 0-139.762162-77.491892-157.751351-139.762162h-5.535135v94.097297c45.664865 35.978378 101.016216 56.735135 156.367567 59.502703m-2038.313513-49.816217c11.07027 24.908108 35.978378 41.513514 63.654054 42.897298v6.918919h-202.032433v-6.918919c8.302703 0 44.281081-8.302703 31.827027-41.513514l-84.41081-221.405405h-240.778379l-87.178378 229.708108c-11.07027 27.675676 22.140541 33.210811 29.059459 33.210811v6.918919h-96.864864v-6.918919c20.756757 1.383784 41.513514-11.07027 51.2-29.05946L5827.113514 19.372973h24.908108l254.616216 668.367568M5793.902703 152.216216l-106.551352 282.291892h213.102703l-106.551351-282.291892zM6503.783784 286.443243c-84.410811 0-120.389189 73.340541-131.45946 112.086487h-1.383783v-99.632433h-105.167568v5.535135c11.07027 1.383784 19.372973 8.302703 20.756757 19.372973v391.610811c-1.383784 11.07027-11.07027 17.989189-20.756757 16.605406v6.918919h128.691892v-6.918919c-9.686486 1.383784-17.989189-5.535135-20.756757-15.221622v-235.243243c0-110.702703 62.27027-175.740541 103.783784-175.740541 22.140541 0 34.594595 15.221622 34.594594 42.897298v47.048648c0 16.605405 11.07027 29.059459 41.513514 29.05946 24.908108 0 40.12973-11.07027 40.12973-29.05946-1.383784-77.491892-27.675676-109.318919-89.945946-109.318919M1120.864865 714.032432c-22.140541 16.605405-48.432432 24.908108-74.724324 24.908109-63.654054 0-88.562162-29.059459-98.248649-77.491892v-2.767568 5.535135c-37.362162 45.664865-94.097297 71.956757-153.6 73.340541-62.27027 0-109.318919-34.594595-109.318919-101.016216 0-124.540541 167.437838-149.448649 261.535135-146.681082h2.767568v-89.945945c0-63.654054-16.605405-102.4-83.027027-102.4-44.281081 0-91.32973 12.454054-91.32973 60.886486v45.664865c-1.383784 19.372973-16.605405 33.210811-35.978378 33.210811h-2.767568c-44.281081 0-42.897297-17.989189-42.897297-42.897298 0-58.118919 71.956757-110.702703 174.356756-110.702702 121.772973 0 166.054054 66.421622 166.054054 136.994594v240.778379c0 37.362162 13.837838 48.432432 34.594595 52.583783 16.605405 4.151351 34.594595 1.383784 49.816216-6.918918l2.767568 6.918918zM942.356757 636.540541c4.151351-11.07027 5.535135-22.140541 6.918919-33.210811v-41.513514-55.351351c-65.037838 0-179.891892 12.454054-179.891892 96.864865-4.151351 48.432432 31.827027 89.945946 80.259459 94.097297h11.070271c37.362162-2.767568 69.189189-26.291892 80.259459-62.27027m687.740541 73.34054V419.286486c0-92.713514-60.886486-132.843243-148.064865-132.843243H1457.124324c-4.151351 0-8.302703 1.383784-12.454054 1.383784H1439.135135c-4.151351 0-8.302703 1.383784-11.07027 2.767568h-4.151351c-4.151351 1.383784-8.302703 2.767568-12.454055 5.535135h-2.767567c-17.989189 8.302703-34.594595 19.372973-48.432433 31.827027-2.767568 2.767568-6.918919 5.535135-8.302702 9.686486v1.383784c-8.302703 8.302703-15.221622 17.989189-20.756757 27.675676l-1.383784 1.383783c-1.383784 2.767568-2.767568 4.151351-4.151351 6.918919V298.897297h-120.389189v5.535135c11.07027 0 19.372973 8.302703 20.756756 19.372973v390.227027c-1.383784 11.07027-9.686486 19.372973-20.756756 19.372973v6.918919h127.308108v-6.918919c-11.07027-1.383784-19.372973-11.07027-20.756757-23.524324v-224.172973-22.14054c0-2.767568 1.383784-5.535135 1.383784-6.918919 0-4.151351 1.383784-9.686486 1.383784-13.837838 0-5.535135 0-4.151351 1.383783-5.535135 12.454054-69.189189 70.572973-119.005405 141.145946-123.156757h2.767568c62.27027 0 78.875676 19.372973 83.027027 83.027027 0 11.07027 1.383784 24.908108 1.383784 35.978378V711.264865c-1.383784 12.454054-9.686486 22.140541-22.140541 22.14054v6.918919h128.691892v-6.918919c-13.837838-2.767568-23.524324-12.454054-22.14054-24.908108 0 1.383784 0 1.383784 0 0M4245.448649 1.383784c-58.118919 4.151351-112.086486 34.594595-146.681081 81.643243-24.908108 33.210811-44.281081 73.340541-44.281082 164.67027v24.908108c-4.151351 20.756757-26.291892 51.2-48.432432 51.2 16.605405 0 34.594595-4.151351 48.432432-12.454054v406.832433c-2.767568 9.686486-11.07027 16.605405-20.756756 16.605405v5.535135h125.924324v-5.535135c-9.686486 0-17.989189-6.918919-19.372973-16.605405V326.572973h96.864865v-26.291892h-96.864865v-138.378378c0-101.016216 45.664865-146.681081 101.016216-146.681081 24.908108 0 55.351351 9.686486 55.351352 45.664864v51.2c0 16.605405 11.07027 27.675676 40.129729 27.675676 29.059459 0 40.12973-11.07027 40.12973-27.675676 0-59.502703-20.756757-112.086486-130.075676-112.086486m1008.778379 437.275676c-41.513514 0-94.097297 51.2-124.540541 92.713513-15.221622 19.372973-44.281081 73.340541-63.654054 101.016216 51.2 58.118919 106.551351 101.016216 161.902703 60.886487l4.151351 6.918919c-59.502703 56.735135-154.983784 55.351351-213.102702-2.767568l-5.535136-5.535135a206.875676 206.875676 0 0 1-146.681081 55.351351c-157.751351 6.918919-200.648649-94.097297-200.648648-157.751351 0-88.562162 73.340541-128.691892 116.237838-143.913513l15.221621-4.151352 9.686487-2.767567-13.837838-16.605406c-24.908108-26.291892-40.12973-60.886486-41.513514-96.864865-1.383784-71.956757 56.735135-131.459459 128.691892-132.843243h8.302703c81.643243 0 130.075676 47.048649 130.075676 117.621622V327.956757c-2.767568 8.302703-5.535135 17.989189-9.686487 24.908108-1.383784 2.767568-1.383784 4.151351-2.767567 6.918919-2.767568 4.151351-5.535135 6.918919-9.686487 11.07027-26.291892 26.291892-58.118919 45.664865-94.097297 52.583784l34.594594 44.281081c44.281081 58.118919 77.491892 101.016216 121.772973 152.216216 4.151351-5.535135 6.918919-11.07027 11.070271-16.605405 27.675676-53.967568 44.281081-114.854054 48.432432-175.740541h136.994595v8.302703m-390.227027-62.27027c11.07027 12.454054 19.372973 24.908108 29.059459 35.978378 42.897297-17.989189 60.886486-44.281081 66.421622-105.167568 0-48.432432-29.059459-105.167568-80.25946-105.167567h-6.918919c-42.897297 8.302703-88.562162 74.724324-8.302702 174.356757m135.61081 314.118919c2.767568-2.767568 5.535135-4.151351 8.302703-8.302703l-2.767567-2.767568c-105.167568-130.075676-157.751351-195.113514-182.65946-225.556756-9.686486 5.535135-20.756757 12.454054-29.059459 19.372972-13.837838 12.454054-23.524324 27.675676-30.443244 44.281082-4.151351 15.221622-6.918919 31.827027-6.918919 48.432432 5.535135 42.897297 24.908108 83.027027 53.967568 114.854054a132.677189 132.677189 0 0 0 163.286486 26.291892c1.383784 0 1.383784-1.383784 2.767568-1.383784l6.918919-4.151351c5.535135-4.151351 11.07027-8.302703 16.605405-11.07027m-1607.956756-45.664865c-26.291892 44.281081-78.875676 96.864865-189.578379 96.864865-103.783784 0-203.416216-89.945946-203.416216-224.172973 0-101.016216 65.037838-197.881081 157.751351-222.78919 15.221622-4.151351 30.443243-6.918919 45.664865-5.535135h17.989189c12.454054 0 26.291892 2.767568 38.745946 5.535135 88.562162 16.605405 152.216216 96.864865 148.064865 186.810811v4.151352h-311.351351c0 13.837838 2.767568 41.513514 4.151351 59.502702 12.454054 91.32973 76.108108 174.356757 154.983784 174.356757 24.908108 0 48.432432-8.302703 69.189189-22.140541 16.605405-15.221622 29.059459-31.827027 38.745946-52.583783h29.05946z m-256-287.827027c-13.837838 34.594595-22.140541 70.572973-24.908108 107.935135h206.183783c0-69.189189-27.675676-159.135135-103.783783-159.135135h-12.454055c-29.059459 5.535135-53.967568 24.908108-65.037837 51.2m750.01081 289.21081c-26.291892 44.281081-78.875676 96.864865-189.578378 96.864865-103.783784 0-203.416216-89.945946-203.416216-224.172973 0-101.016216 65.037838-197.881081 156.367567-222.789189 15.221622-4.151351 30.443243-5.535135 45.664865-5.535135h17.989189c12.454054 0 26.291892 2.767568 38.745946 5.535135 88.562162 16.605405 152.216216 96.864865 148.064865 186.810811v4.151351h-307.2c0 13.837838 1.383784 41.513514 4.151352 59.502703 12.454054 91.32973 76.108108 174.356757 156.367567 174.356757 24.908108 0 48.432432-8.302703 69.189189-22.140541 16.605405-13.837838 30.443243-31.827027 38.745946-52.583784h24.908108z m-251.848648-289.21081c-13.837838 34.594595-22.140541 70.572973-24.908108 107.935135h206.183783c0-69.189189-27.675676-159.135135-105.167567-159.135135h-9.686487c-29.059459 5.535135-53.967568 24.908108-66.421621 51.2m3979.762162 286.443243c-26.291892 44.281081-77.491892 96.864865-189.578378 96.864865-103.783784 0-202.032432-88.562162-202.032433-224.172973 0-102.4 65.037838-199.264865 156.367568-224.172973 15.221622-4.151351 29.059459-5.535135 44.281081-6.918919h17.989189c12.454054 0 26.291892 2.767568 38.745946 5.535135 88.562162 16.605405 152.216216 96.864865 148.064865 186.810811v4.151351h-305.816216c0 20.756757 1.383784 40.12973 4.151351 59.502703 12.454054 91.32973 76.108108 174.356757 154.983784 174.356757 24.908108 0 48.432432-8.302703 69.189189-22.140541 16.605405-15.221622 29.059459-31.827027 38.745946-51.2l24.908108 1.383784z m-253.232432-289.210811c-13.837838 34.594595-22.140541 70.572973-24.908109 107.935135h206.183784c0-69.189189-27.675676-159.135135-105.167567-159.135135h-11.070271c-27.675676 4.151351-52.583784 23.524324-65.037837 51.2m-298.897298 6.918919c33.210811 44.281081 49.816216 96.864865 48.432433 152.216216 0 132.843243-89.945946 228.324324-204.8 228.324325h-12.454054a179.615135 179.615135 0 0 1-45.664865-9.686487c-20.756757-8.302703-37.362162-23.524324-47.048649-41.513513V1010.162162h-145.297297v-5.535135c5.535135 0 58.118919-11.07027 58.118919-44.281081V326.572973c0-8.302703-6.918919-15.221622-16.605406-15.221622H6697.513514v-5.535135h103.783783v52.583784c35.978378-38.745946 85.794595-59.502703 138.378379-58.118919 49.816216-2.767568 94.097297 19.372973 124.54054 58.118919m-181.275675 357.016216c94.097297 0 141.145946-109.318919 141.145945-208.951351 1.383784-51.2-13.837838-101.016216-42.897297-141.145946-20.756757-27.675676-55.351351-41.513514-89.945946-38.745946-31.827027 0-89.945946 34.594595-89.945946 84.410811v218.637838c1.383784 8.302703 2.767568 17.989189 5.535135 26.291892 6.918919 24.908108 24.908108 45.664865 48.432433 53.967567 8.302703 2.767568 16.605405 5.535135 24.908108 5.535135" fill="#000000" p-id="8055"></path></svg>