<?xml version="1.0" standalone="no"?><!DOCTYPE svg PUBLIC "-//W3C//DTD SVG 1.1//EN" "http://www.w3.org/Graphics/SVG/1.1/DTD/svg11.dtd"><svg t="1751979048404" class="icon" viewBox="0 0 3720 1024" version="1.1" xmlns="http://www.w3.org/2000/svg" p-id="9069" xmlns:xlink="http://www.w3.org/1999/xlink" width="930" height="256"><path d="M2555.357867 421.853867c-18.2272 0-32.768-9.796267-32.768-29.354667 0-28.808533 29.047467-68.1984 59.1872-68.1984 19.012267 0 27.989333 17.2032 27.989333 34.645333 0.034133 31.4368-20.855467 62.907733-54.408533 62.907734z" fill="#2c2c2c" p-id="9070"></path><path d="M258.525867 1024c146.158933 0 306.619733-97.28 422.912-179.473067-6.075733 20.343467-11.8784 41.233067-11.8784 62.907734 0 67.3792 56.32 113.390933 121.617066 113.390933 99.908267 0 190.327467-70.826667 256.4096-139.844267-10.3424 22.766933-20.138667 46.2848-20.138666 71.645867 0 40.721067 34.645333 59.1872 71.918933 59.1872 138.786133 0 286.8224-143.7696 378.2656-240.503467l-135.850667 237.3632h92.501334l190.8736-332.014933c21.9136-38.365867 46.4896-75.605333 84.821333-98.884267 38.058667-22.971733 86.4256-45.192533 131.925333-45.192533 15.5648 0 38.843733 11.400533 38.843734 29.9008 0 5.5296-1.8432 11.093333-3.6864 16.110933a40.7552 40.7552 0 0 0-20.616534-6.075733c-26.7264 0-50.7904 21.674667-50.7904 48.913067 0 27.204267 21.981867 42.8032 47.104 42.8032 41.233067 0 77.687467-28.228267 108.612267-52.292267a1501.354667 1501.354667 0 0 0 103.082667-88.576L1880.746667 845.858133c-2.2528 3.959467-4.642133 7.9872-7.031467 12.117334-15.701333 26.624-33.1776 56.32-33.1776 87.04 0 42.530133 40.209067 64.750933 77.994667 64.750933 59.4944 0 114.722133-30.9248 162.030933-64.512 85.9136-60.791467 161.006933-135.611733 231.8336-213.333333l-72.430933 127.1808a706.56 706.56 0 0 1-8.328534 13.994666c-13.653333 22.562133-28.125867 46.523733-28.125866 72.977067 0 47.3088 35.9424 62.8736 79.837866 62.8736 106.769067 0 214.698667-100.932267 294.024534-175.138133l20.48-19.114667-0.6144 2.730667c-5.632 23.1424-11.264 46.318933-11.264 70.212266 0 83.831467 71.68 127.419733 149.162666 127.419734 80.827733 0 157.218133-36.727467 224.904534-77.175467a1431.9616 1431.9616 0 0 0 186.914133-134.314667c52.292267-44.168533 98.850133-93.320533 143.223467-145.6128l-203.229867 350.754134h90.112l125.303467-214.903467c49.937067-85.9136 116.0192-164.181333 202.171733-215.4496 38.0928-22.7328 83.831467-44.9536 129.297067-44.9536 19.831467 0 31.982933 7.953067 40.1408 24.8832a134.075733 134.075733 0 0 0-14.779734-1.058133c-25.088 0-54.203733 19.831467-54.203733 47.035733 0 17.169067 17.2032 33.314133 34.133333 33.314133 32.221867 0 58.948267-35.396267 58.948267-65.809066 0-32.768-25.122133-52.565333-57.105067-52.565334-97.518933 0-181.3504 63.6928-250.0608 126.088534l63.931734-121.070934h-87.722667l-20.8896 37.239467c-14.336 25.8048-34.474667 49.425067-53.6576 71.8848l-6.109867 7.168a1402.6752 1402.6752 0 0 1-181.589333 177.390933c-77.7216 62.3616-234.496 173.124267-341.777067 173.124267-44.714667 0-84.0704-36.522667-84.0704-81.681067 0-32.256 12.970667-61.8496 25.6-90.658133 40.994133-0.273067 80.384-2.6624 120.046934-13.482667 78.506667-21.435733 163.089067-58.1632 219.682133-118.715733 25.634133-27.511467 52.087467-65.058133 52.087467-104.686933 0-52.565333-52.906667-76.663467-99.157334-76.663467-143.530667 0-284.672 160.426667-371.131733 261.188267l-156.501333 136.0896c-37.751467 32.802133-94.6176 75.8784-145.885867 75.8784-17.169067 0-30.1056-15.36-30.1056-31.982934 0-15.598933 5.0176-30.890667 12.6976-44.373333l215.381333-377.7536h-86.9376l-39.936 65.297067c-14.506667 23.790933-29.047467 47.581867-45.431466 70.314666-30.685867 42.564267-66.901333 81.169067-104.1408 118.1696-51.541333 51.3024-105.472 102.2976-164.4544 144.861867-31.982933 23.278933-67.618133 48.64-108.612267 48.64-18.2272 0-44.4416-9.796267-44.4416-31.505067 0-16.861867 8.772267-33.792 16.930133-48.3328l217.838934-377.514666h129.809066l7.099734-16.896h-130.56l112.3328-195.8912h-88.029867l-65.058133 111.035733c-47.8208 81.169067-120.2176 150.9376-200.362667 200.362667l-3.8912 2.389333c-12.1856 7.611733-26.7264 16.622933-41.028267 16.622933a18.944 18.944 0 0 1-11.093333-3.959466c17.7152-15.0528 30.9248-35.9424 30.9248-60.279467 0-34.372267-30.9248-48.64-61.576533-48.64-55.5008 0-108.6464 23.2448-155.4432 51.3024l25.634133-46.011733H1617.237333l-55.773866 102.570666c-60.0064 110.762667-149.6064 198.792533-248.2176 275.456l-2.56 2.013867c-38.024533 29.832533-93.730133 73.591467-144.145067 73.591467-19.797333 0-41.506133-12.6976-41.506133-34.6112 0-19.0464 9.250133-38.058667 18.500266-54.203734l207.7696-364.782933h-89.088l-47.274666 82.466133c-2.1504-72.157867-36.522667-107.861333-111.035734-107.861333-141.4144 0-273.066667 111.035733-354.235733 217.565867-26.146133 34.133333-45.431467 70.826667-62.907733 109.9776-108.6464 72.704-263.031467 175.240533-396.765867 175.240533-123.460267 0-189.781333-80.622933-189.781333-201.386667 0-101.2736 33.28-203.298133 76.9024-293.444266C268.322133 317.44 419.498667 149.845333 609.314133 56.866133c52.3264-25.668267 112.059733-43.690667 170.769067-43.690666 78.779733 0 195.072 43.383467 195.072 136.430933 0 19.0464-4.232533 37.000533-9.5232 54.9888l13.2096 8.738133c29.866667-81.442133 61.8496-134.0416 134.5536-183.1936L1100.117333 16.384c-30.890667 22.7328-64.989867 46.011733-105.198933 46.011733-11.3664 0-23.790933-1.058133-34.0992-6.894933l-53.930667-29.354667C869.717333 5.563733 824.763733 0 782.677333 0c-32.836267 0.136533-65.570133 4.096-97.518933 11.8784-117.384533 28.535467-229.1712 87.210667-322.218667 163.874133-120.285867 99.396267-222.549333 224.699733-292.352 364.270934-35.976533 71.918933-67.925333 151.210667-67.925333 232.891733C2.628267 923.306667 109.3632 1024 258.491733 1024z m853.265066-511.488c47.342933 0 85.128533 30.685867 85.128534 78.779733 0 66.3552-52.872533 145.1008-91.7504 197.188267-61.303467 82.2272-174.967467 202.513067-283.101867 202.513067-46.523733 0-71.8848-39.662933-71.8848-82.500267 0-38.331733 13.994667-71.8848 30.651733-106.257067 44.407467-90.658133 113.937067-174.455467 195.584-234.1888 40.482133-29.9008 83.831467-55.534933 135.3728-55.534933z m1604.744534 290.304a869.376 869.376 0 0 0-7.543467-0.341333l6.792533-11.3664c53.589333-89.770667 159.6416-267.4688 265.966934-267.502934 23.7568 0 52.087467 11.093333 52.087466 38.331734 0 52.087467-49.9712 114.210133-85.162666 148.0704-55.739733 53.623467-136.9088 93.320533-215.381334 93.320533-5.666133 0-11.195733-0.273067-16.725333-0.512z" fill="#2c2c2c" p-id="9071"></path></svg>