<?xml version="1.0" standalone="no"?><!DOCTYPE svg PUBLIC "-//W3C//DTD SVG 1.1//EN" "http://www.w3.org/Graphics/SVG/1.1/DTD/svg11.dtd"><svg t="1751978888750" class="icon" viewBox="0 0 1546 1024" version="1.1" xmlns="http://www.w3.org/2000/svg" p-id="3799" xmlns:xlink="http://www.w3.org/1999/xlink" width="386.5" height="256"><path d="M110.628716 1023.91406c-0.657376-0.07547-2.885625-0.30632-4.951664-0.513949-18.859694-1.893926-38.992136-9.606229-54.817996-20.999837-23.727692-17.082559-40.448267-41.956305-47.422601-70.546873-3.706235-15.192047-4.442838-32.213137-2.072528-47.871665 6.355546-41.9826 34.098184-77.942951 72.582861-94.084011 9.604521-4.027923 19.136304-6.575127 30.364288-8.114241 6.224071-0.852711 21.381969-0.857492 27.661021-0.007513 13.315879 1.801381 24.602258 5.159293 36.198373 10.770041 12.759585 6.17353 21.589939 12.530101 32.278362 23.236623 9.343961 9.360011 15.113845 17.150174 21.803373 29.439522l1.423006 2.614138-5.043185 3.730481c-6.947356 5.138803-23.243795 16.766677-28.551296 20.371488l-4.384784 2.97817-1.80343-3.920011c-2.229956-4.846143-3.817562-7.718449-6.38833-11.557867-10.272142-15.340597-26.652589-26.297776-44.507607-29.771796-9.447775-1.838263-21.079064-1.633366-30.392974 0.53478-9.780391 2.277083-20.401198 7.38481-28.514756 13.714061-3.270489 2.551302-9.289664 8.520277-11.93795 11.839258-14.28982 17.906584-19.553268 40.719072-14.652487 63.504582 1.696884 7.888513 6.08884 18.195146 10.670666 25.040737 12.126455 18.117627 30.713978 29.725011 51.767771 32.327196 3.721944 0.460334 12.68753 0.460334 16.409474 0 18.645236-2.304744 35.873271-11.991906 47.645596-26.790894 3.466848-4.358489 5.882919-8.130974 8.638435-13.489017 1.207523-2.347772 2.296206-4.268676 2.419485-4.268676s8.707416 6.057764 19.07586 13.46238l18.851839 13.462038-1.910318 3.612666c-3.964405 7.497844-10.784383 16.922739-17.136514 23.681591-10.821948 11.515181-21.362845 19.340176-35.07759 26.040631-11.845405 5.786617-24.39702 9.477827-37.735096 11.096509-2.990464 0.36335-18.363161 0.722601-20.489304 0.479458z m161.185208-122.569057v-117.986207h45.760208v84.690533h119.522929v-84.690533h45.760208v235.972413h-45.760208v-103.814202h-119.522929v103.814202h-45.760208v-117.986206z m257.274814 97.069693c5.100556-11.504253 28.633596-64.597704 52.29538-117.986206l43.022107-97.069352 32.100444 0.003415 32.100444 0.003756 52.005793 116.5311c28.603203 64.092293 52.299136 117.184037 52.658729 117.98245l0.652937 1.45135h-54.793067l-10.578463-23.390637-10.57812-23.390638-61.230231 0.083666-61.230573 0.083666-10.459963 23.306972-10.459623 23.306971h-54.780432l9.274638-20.916513z m169.532348-73.470403c-0.192944-0.832563-41.76541-93.757542-41.943328-93.755152-0.127036 0.001707-39.608874 92.14569-40.239614 93.912239-0.070006 0.196018 15.717607 0.318955 41.089934 0.318956 35.048562 0 41.186577-0.071031 41.093008-0.476043z m132.218655-23.59929v-117.986207l32.185818 0.007172 32.185817 0.007171 50.370378 70.745622 50.370377 70.745622 0.086057-70.752793 0.086056-70.752794h46.100336v235.97856l-18.49771-0.088447-18.49771-0.088447-63.887738-88.690112c-35.138375-48.779698-64.003163-88.695917-64.143859-88.703088-0.141037-0.007171-0.256121 39.941831-0.25612 88.775485v88.788462h-46.101702v-117.986206z m294.709395 0v-117.986207h164.941643v47.467678h-118.839941v47.126184h109.961095v47.467678h-109.961095v47.126183h135.914646v46.78469h-182.016348v-117.986206z m246.55873 0v-117.986207h46.101701v189.187723h128.401776v46.78469h-174.503477v-117.986206zM582.073253 723.344967c-49.256082-2.278449-104.105838-17.234182-148.324541-40.443144-33.946561-17.817795-60.851514-37.756269-89.03707-65.984853-22.075885-22.10901-38.362421-42.475034-52.148879-65.210003l-6.035225-9.952845 8.56194-4.541189c16.683352-8.848453 92.7375-47.792439 93.334431-47.792438 0.333298 0 3.475385 4.27653 6.982189 9.50378 39.634486 59.074037 101.639567 97.502708 174.199889 107.961989 12.684798 1.828359 50.829004 1.536723 64.642098-0.494142 15.370307-2.260008 33.806207-6.451506 45.516039-10.348295 0.761873-0.253389-0.693574-2.617894-4.043973-6.56659-25.936134-30.572941-49.579477-72.535051-62.881013-111.599925-24.060649-70.664346-25.773583-146.516671-4.917515-217.786145 12.951163-44.257292 35.240141-87.214516 63.467359-122.319425 4.2055-5.229982 7.646736-9.844591 7.646735-10.254043 0-1.392954-22.034564-7.258115-36.476349-9.70936-22.312199-3.786828-57.24158-4.256382-77.406806-1.040532-33.929828 5.411315-68.36814 18.118652-95.27924 35.156474-29.988986 18.987071-54.996939 43.387165-74.952829 73.131983l-8.811913 13.133521-11.216374-5.888383c-6.168749-3.238388-29.085051-15.114528-50.924622-26.390321S284.191377 185.349381 284.108394 185.276301c-0.347299-0.30632 13.325441-22.053005 18.953264-30.145049 17.088023-24.569475 47.431138-57.108397 69.848858-74.903654 58.620192-46.531984 123.788532-72.73824 197.157512-79.282974 13.609905-1.214353 47.357034-1.224939 60.486115-0.019465 46.579793 4.276189 86.507623 15.570423 127.758401 36.136221l19.714112 9.828883 6.604496-3.758143c10.66486-6.068691 29.613343-14.824941 44.003903-20.33529C869.012291 7.337052 909.676041-0.021804 954.604027 0.000051c31.374086 0.015367 57.5479 3.098034 85.961233 10.124275 64.191668 15.873328 118.933511 46.31616 166.099308 92.369711 25.570394 24.967316 45.609608 50.459507 61.789257 78.603401l2.451927 4.265602-39.906999 20.587654c-21.949191 11.323602-44.909887 23.211353-51.023655 26.416958l-11.115974 5.829304-8.402462-12.675236c-41.458748-62.540544-109.274692-103.255859-183.503554-110.172138-21.975144-2.047599-54.605929-0.16221-74.44093 4.301459-10.208283 2.297231-26.780308 7.032046-26.775868 7.650151 0.002732 0.323053 2.713853 3.911815 6.025322 7.975253 42.537528 52.193614 69.097572 115.816353 77.679318 186.076028 2.048282 16.769409 2.321477 59.583546 0.485946 76.18494-7.751574 70.107028-34.260053 134.805473-76.57356 186.890151-9.59291 11.807499-9.183117 10.990646-6.106598 12.179045 1.452716 0.561416 8.25118 2.442024 15.10804 4.179205 34.848105 8.829671 72.360548 10.07749 107.582248 3.577833 64.061558-11.821501 121.758008-49.708562 158.866804-104.322686 3.450798-5.079383 6.567614-9.575153 6.9255-9.992117 0.357886-0.416281 8.911971 3.384206 19.008927 8.44549 20.00165 10.026266 82.653862 42.447715 83.325923 43.119434 1.119418 1.119418-18.847742 30.759055-31.093378 46.154974-11.593041 14.575651-41.980892 44.927986-56.49883 56.433605-52.466127 41.578271-111.345171 67.000456-176.197971 76.077028-74.464151 10.421716-153.324697-3.535488-217.488704-38.491847l-9.068376-4.940054-11.247449 5.950876c-55.72842 29.485282-119.651331 43.540837-184.396219 40.546617z m208.037855-204.834982c31.055472-38.441989 50.432529-85.073348 55.207982-132.858956 1.602632-16.037928 0.650205-48.707984-1.845775-63.311638-6.868812-40.185658-21.565693-74.629093-45.274261-106.104261-4.464694-5.92663-10.965717-13.850317-14.447591-17.606752l-6.330276-6.830906-5.873356 6.368865c-7.742354 8.394949-20.644342 25.522243-27.147414 36.037187-33.019063 53.3926-43.800031 118.987467-29.816873 181.418733 8.799278 39.286845 29.030071 78.863278 56.293934 110.123988l6.278369 7.198695 2.747661-2.600477c1.51077-1.429836 6.104207-6.755777 10.2076-11.834478z" p-id="3800"></path></svg>