<?xml version="1.0" standalone="no"?><!DOCTYPE svg PUBLIC "-//W3C//DTD SVG 1.1//EN" "http://www.w3.org/Graphics/SVG/1.1/DTD/svg11.dtd"><svg t="1751978902602" class="icon" viewBox="0 0 1024 1024" version="1.1" xmlns="http://www.w3.org/2000/svg" p-id="4827" xmlns:xlink="http://www.w3.org/1999/xlink" width="256" height="256"><path d="M3.114667 374.4h132.906666c114.346667 0 159.061333 67.072 159.061334 138.112 0 72.277333-57.386667 136.661333-166.485334 136.661333H3.328c-2.304 0-3.114667-1.450667-3.114667-2.688 0-1.450667 1.450667-2.688 3.498667-2.688h23.424c7.253333 0 11.989333-4.352 11.989333-12.416V392.618667c0-5.973333-2.901333-12.629333-12.416-12.629334H2.901333C1.024 379.989333 0 378.752 0 377.301333c0-1.237333 0.426667-2.901333 3.114667-2.901333m83.029333 261.973333c0 5.973333 2.688 7.850667 6.613333 7.850667H128c86.784 0 118.229333-66.474667 118.229333-133.12S212.906667 379.733333 139.562667 379.733333H91.733333c-4.992 0-5.376 4.138667-5.376 6.016l-0.213333 250.538667z m222.165333-261.973333c-2.048 0-3.925333 0.853333-3.925333 2.474667s1.024 2.688 2.901333 2.688h23.381334c5.418667 0 10.581333 3.754667 10.581333 14.08v237.952c0 4.949333-3.754667 12.373333-10.368 12.373333h-23.168c-2.688 0-2.901333 2.133333-2.901333 2.944s-0.213333 2.261333 2.901333 2.261333h112.64c1.664 0 3.925333-0.213333 3.925333-1.877333s-0.426667-3.285333-3.328-3.285333h-21.76c-3.072 0-11.562667-1.877333-11.562666-11.392V391.168c0-6.826667 4.352-11.392 12.202666-11.392h21.333334c1.877333 0 2.901333-1.024 2.901333-2.474667s-1.024-2.688-3.541333-2.688c0-0.213333-112.64 0.426667-112.213334-0.213333z m176 137.514667c0-75.989333 33.962667-137.514667 97.706667-137.514667 62.549333 0 97.749333 61.525333 97.749333 137.514667s-32.085333 137.472-97.706666 137.472c-63.573333 0.213333-97.706667-61.482667-97.706667-137.472m97.706667 143.274666c90.709333 0 147.84-64.170667 147.84-143.104s-56.533333-143.274667-147.84-143.274666c-91.093333 0-147.84 64.170667-147.84 143.104s59.008 143.274667 147.84 143.274666m437.76-7.68c-35.626667 3.754667-55.338667-54.613333-73.344-82.389333-13.44-20.48-42.026667-41.386667-70.186667-45.568 46.378667-2.688 98.346667-17.578667 98.346667-70.186667 0-42.666667-26.282667-74.965333-122.794667-74.965333H740.693333c-1.450667 0-2.901333 0.853333-2.901333 2.474667s1.450667 2.688 2.901333 2.688h25.472c5.376 0 10.581333 3.754667 10.581334 14.08v237.952c0 4.949333-3.754667 12.373333-10.368 12.373333h-25.045334c-2.090667 0-2.901333 1.706667-2.901333 2.517333s0.853333 2.688 2.901333 2.688h118.016c1.664 0 3.114667-0.853333 3.114667-2.474666s-1.024-2.688-3.328-2.688h-23.808c-3.114667 0-11.605333-2.090667-11.605333-11.392v-112.426667h12.245333c58.368 0 62.72 63.36 91.733333 99.584 24.832 31.061333 57.344 34.986667 75.776 34.986667 7.850667 0 13.226667-0.213333 18.218667-1.450667 3.114667-1.024 3.712-6.4-1.877333-5.802667m-184.277334-267.946666h17.194667c29.397333 0 77.013333 11.605333 77.013333 67.114666 0 50.944-42.24 68.138667-81.365333 68.138667h-25.045333V391.168c0-7.04 4.352-11.562667 12.202666-11.562667" p-id="4828"></path></svg>