<?xml version="1.0" standalone="no"?><!DOCTYPE svg PUBLIC "-//W3C//DTD SVG 1.1//EN" "http://www.w3.org/Graphics/SVG/1.1/DTD/svg11.dtd"><svg t="1751978925183" class="icon" viewBox="0 0 4740 1024" version="1.1" xmlns="http://www.w3.org/2000/svg" p-id="5836" xmlns:xlink="http://www.w3.org/1999/xlink" width="1185" height="256"><path d="M531.383556 1017.343021C390.216444 1017.343021 0 929.040153 0 514.545315S372.007648 10.768642 521.398088 10.768642s309.745315 27.606883 402.35564 89.281836V294.473423a16.642447 16.642447 0 1 1-33.089101 0c-2.153728-33.089101-90.260803-231.623709-310.920076-227.120459-238.084895 4.699044-399.027151 191.877629-399.027151 438.773231s156.634799 458.548375 392.565965 452.087189c76.555258-2.153728 156.634799-26.627916 195.793499-58.738049v-215.372849c0-61.674952-37.396558-83.799618-74.98891-83.799618a17.621415 17.621415 0 1 1 0-35.24283h322.2761c24.278394 0 24.278394 37.396558 0 35.24283-37.396558 0-74.98891 22.124665-74.988911 83.799618v220.46348c-78.3174 70.681453-269.020268 112.581262-409.991587 112.581262zM2727.795029 1017.343021c141.167113 0 324.038241-74.98891 421.151816-145.670363v-180.7174c0-24.278394-15.467686-28.781644-24.278394 2.153729s-121.391969 264.517017-357.323136 271.173996-390.216444-211.652772-390.216443-458.548375 160.942256-440.731166 399.222944-445.43021c220.46348-4.307457 308.570554 200.688337 310.724283 233.777438 0 21.928872 24.278394 24.278394 24.278394 0V100.050478C3018.744168 38.179732 2866.61262 0.783174 2716.634799 0.783174s-520.223327 99.267304-520.223327 513.762141 390.216444 502.797706 531.383557 502.797706zM4710.008413 960.171319c-37.592352 0-74.98891-22.124665-74.98891-83.799617V142.14608c0-61.674952 37.396558-83.799618 74.98891-83.799617s35.24283-33.089101 0-33.089102H4385.774379c-35.24283 0-35.24283 33.089101 0 33.089102s74.98891 22.124665 74.98891 83.799617v734.225622c0 61.674952-37.396558 83.799618-74.98891 83.799617s-35.24283 44.053537 0 44.053538h324.234034c35.24283 0 35.24283-44.053537 0-44.053538zM1134.427533 58.150669c37.396558 0 74.98891 22.124665 74.988911 83.799618v481.847801c0 230.644742 180.325813 400.201912 411.166348 400.201912s417.823327-169.55717 417.823327-400.201912l4.50325-481.847801c0-61.674952 37.396558-83.799618 74.793117-83.799618s35.438623-33.089101 0-33.089101H1893.714723c-35.24283 0-35.24283 33.089101 0 33.089101s74.98891 22.124665 74.98891 83.799618l7.244359 504.951434c0 162.704398-131.964818 327.758317-293.690248 327.758317a295.648184 295.648184 0 0 1-297.606119-294.669216V141.950287c0-61.674952 37.396558-83.799618 74.98891-83.799618s35.24283-33.089101 0-33.089101H1134.427533c-35.24283 0-35.24283 33.089101 0 33.089101zM3821.889101 1017.343021c141.167113 0 324.038241-74.98891 421.151817-145.670363v-180.7174c0-24.278394-15.467686-28.781644-24.278394 2.153729s-121.196176 264.517017-357.127342 271.173996-390.412237-211.652772-390.412237-458.548375S3632.360994 65.003442 3871.229063 59.521224c220.46348-4.307457 308.570554 200.688337 310.920077 233.777438 0 21.928872 24.0826 24.278394 24.0826 0V99.267304c-92.610325-61.870746-244.741874-99.267304-394.523901-99.267304S3291.288719 99.267304 3291.288719 513.762141s390.216444 502.797706 531.383556 502.797706z" fill="#231815" p-id="5837"></path></svg>