<?xml version="1.0" standalone="no"?><!DOCTYPE svg PUBLIC "-//W3C//DTD SVG 1.1//EN" "http://www.w3.org/Graphics/SVG/1.1/DTD/svg11.dtd"><svg t="1751978869033" class="icon" viewBox="0 0 1024 1024" version="1.1" xmlns="http://www.w3.org/2000/svg" p-id="2804" xmlns:xlink="http://www.w3.org/1999/xlink" width="256" height="256"><path d="M0 0h1024v1024H0V0z" fill="#FFFFFF" p-id="2805"></path><path d="M914.495175 591.399365c-2.077155 2.491523-3.734628 4.148997-5.19023 4.770549-1.243105 0.828737-2.905891 1.035921-4.770549 1.035921-3.734628 0-6.847704-1.243105-9.132043-3.734628-2.294964-2.491523-3.32026-6.64052-3.32026-12.452302v-16.40474c0-6.018967 1.025296-10.167964 3.32026-12.659487 2.284339-2.491523 5.397414-3.734628 9.132043-3.734628 2.905891 0 5.19023 0.828737 7.262072 2.284339 1.86997 1.450289 3.32026 3.941812 4.356181 7.469256 1.035921 3.734628 2.077155 6.018967 3.32026 7.262073 2.284339 2.491523 6.433335 4.983046 12.255743 7.67644 5.811783 2.491523 12.245118 3.734628 19.300006 3.734629 10.9967 0 19.932184-2.491523 26.987072-7.676441 4.356181-3.113076 6.64052-6.847704 6.640519-11.411069 0-3.113076-1.243105-5.811783-3.320259-8.51049s-5.604599-4.983046-10.375148-6.651144c-3.32026-1.243105-10.385773-2.905891-21.382473-4.983046-13.488223-2.491523-23.459628-5.397414-30.307332-8.924859s-12.452302-8.297993-16.394115-14.731328a38.780635 38.780635 0 0 1-5.811783-20.760921c0-11.623566 4.770549-21.796842 14.524145-30.7217 9.960779-8.722987 22.630891-13.079167 38.190956-13.079167 6.433335 0 12.245118 0.621553 17.647845 2.077154 5.19023 1.243105 10.167964 3.527444 14.524145 6.226151 3.113076-3.113076 6.433335-4.563365 9.546411-4.563365 3.527444 0 6.433335 1.243105 8.728299 3.739941 2.284339 2.491523 3.527444 6.64052 3.527444 12.452302v18.476582c0 5.811783-1.243105 9.960779-3.527444 12.664799-2.294964 2.284339-5.200855 3.734628-8.728299 3.734628-3.113076 0-5.604599-1.035921-7.883625-2.905891-1.657474-1.243105-3.113076-3.941812-3.941813-8.096122-0.828737-3.947125-1.86997-6.853016-3.320259-8.717674-2.284339-2.905891-5.811783-5.604599-10.375148-7.681753-4.57399-2.077155-9.971404-2.905891-15.990371-2.905891-8.924858 0-15.772562 1.86997-20.95748 6.024279-5.200855 4.148997-7.687066 8.297993-7.687066 12.866671 0 3.113076 1.035921 6.018967 3.113076 8.717674 2.077155 2.905891 5.19023 5.19023 9.349851 6.64052 2.698707 1.035921 10.167964 2.905891 22.827451 5.397414 12.462927 2.496835 22.216522 5.195543 28.857042 8.096122s12.245118 7.469256 16.819108 13.902592c4.356181 6.226151 6.64052 13.706032 6.640519 22.423706 0 12.037934-4.148997 21.791529-12.670111 29.064227-11.411069 9.546411-25.733342 14.31696-43.381187 14.31696-6.64052 0-13.281039-0.828737-19.714374-2.491523a88.451721 88.451721 0 0 1-18.689079-7.25676z m-345.620453-92.791965v74.102887h9.96078c6.651144 0 11.421694 1.035921 14.120401 3.320259 2.905891 2.502148 4.356181 5.408039 4.356181 9.142668 0 3.527444-1.450289 6.64052-4.356181 8.924858-2.698707 2.284339-7.469256 3.32026-14.120401 3.32026h-35.91193c-6.64052 0-11.411069-1.035921-14.109776-3.32026-2.905891-2.284339-4.148997-5.397414-4.148997-9.132042 0-3.527444 1.243105-6.433335 3.941812-8.935484 2.905891-2.284339 7.262072-3.32026 12.866671-3.320259V475.360269c-4.770549-0.414368-8.297993-1.662786-10.789516-3.947125s-3.734628-5.19023-3.734628-8.51049c0-3.734628 1.450289-6.64052 4.356181-8.924858 2.698707-2.491523 7.469256-3.527444 13.913216-3.527444h30.089523l37.372844 74.936936 36.730042-74.936936h30.307332c6.64052 0 11.21451 1.243105 14.120401 3.527444 2.698707 2.284339 4.148997 5.19023 4.148997 8.924858 0 3.32026-1.243105 6.226151-3.734629 8.51049s-6.018967 3.532756-10.789516 3.947125v97.350018c5.811783 0 9.960779 1.035921 12.866671 3.527444 2.698707 2.294964 4.148997 5.200855 4.148996 8.935483 0 3.527444-1.450289 6.64052-4.35618 8.924858-2.698707 2.284339-7.469256 3.32026-14.120401 3.32026h-35.91193c-6.64052 0-11.203885-1.035921-14.109776-3.32026-2.698707-2.284339-4.148997-5.397414-4.148997-9.132042 0-3.527444 1.450289-6.433335 4.148997-8.935484 2.905891-2.284339 7.469256-3.32026 14.109776-3.320259h9.971404V498.6074l-31.550437 72.652597h-23.666812l-31.970118-72.652597z m-168.345141 12.250431h19.098135c7.0602 0 13.286352-1.248418 18.89095-3.32026 7.474569-2.905891 12.452302-3.113076 15.156322-6.433336 2.491523-3.113076 3.941812-3.532756 3.941813-6.640519 0-4.775862-2.491523-9.132043-7.474569-13.079168-4.983046-3.941812-12.043246-6.018967-21.584345-6.018967h-28.022993v35.49225h-0.005313z m0 22.004025v39.853743h8.722987c6.018967 0 10.167964 1.035921 12.659487 3.32026s3.739941 5.408039 3.73994 9.142667c0 3.527444-1.243105 6.64052-3.73994 8.924859s-6.64052 3.32026-12.659487 3.320259h-37.160348c-5.811783 0-9.960779-1.035921-12.452302-3.320259s-3.734628-5.397414-3.734628-9.132043c0-3.527444 1.243105-6.651144 3.734628-8.935483s6.64052-3.32026 12.452302-3.32026h3.947125V475.360269h-3.947125c-5.811783 0-9.960779-1.035921-12.452302-3.532756-2.491523-2.284339-3.734628-5.19023-3.734628-8.924859s1.243105-6.853016 3.734628-9.132042 6.64052-3.32026 12.452302-3.32026h55.424433c21.169977 0 54.590384 8.096122 54.590384 34.870696 0 25.945838-4.356181 24.495549-21.175289 33.632904 13.073855 8.51049 18.89095 20.335927 19.926871 53.756335 6.226151 0 15.979746 0.414368 18.056901 1.86997 3.527444 2.491523 5.19023 6.018967 5.19023 10.592957 0 3.527444-1.243105 6.64052-3.527444 8.924858-2.491523 2.284339-6.64052 3.527444-12.664799 3.32026l-36.740667-1.45029c-1.243105-48.151736-3.32026-64.142107-26.567391-63.106186h-24.075868z m-160.663387 4.356181v35.704746h60.614663v-13.073855c0-6.018967 1.243105-10.167964 3.320259-12.659486 2.284339-2.502148 5.19023-3.745253 8.717675-3.745253 3.32026 0 6.231464 1.243105 8.515802 3.745253 2.284339 2.491523 3.32026 6.64052 3.32026 12.659486v37.569404H212.464753c-5.811783 0-9.960779-1.035921-12.245118-3.32026-2.491523-2.284339-3.739941-5.19023-3.73994-8.924858 0-3.527444 1.243105-6.433335 3.73994-8.728299 2.491523-2.284339 6.433335-3.527444 12.245118-3.527444h3.532757V477.230239h-3.532757c-5.811783 0-9.960779-1.035921-12.245118-3.32026-2.491523-2.284339-3.739941-5.19023-3.73994-8.924858 0-3.739941 1.243105-6.64052 3.73994-8.930171 2.284339-2.284339 6.433335-3.32026 12.245118-3.32026h106.694557v37.36222c0 5.811783-1.243105 9.966092-3.32026 12.457615-2.077155 2.491523-4.983046 3.734628-8.51049 3.734628-3.734628 0-6.433335-1.243105-8.717674-3.734628-2.284339-2.491523-3.32026-6.64052-3.32026-12.457615v-12.866671H239.866194v35.497562h20.962792l26.572703-0.414368 1.243105 23.868683-27.815808 1.035921h-20.962792z m540.527672 0v35.704746h60.821847v-13.073855c0-6.018967 1.035921-10.167964 3.113076-12.659486 2.284339-2.502148 5.19023-3.745253 8.717674-3.745253s6.226151 1.243105 8.521115 3.745253c2.284339 2.491523 3.32026 6.64052 3.320259 12.659486v37.569404h-111.884787c-5.822408 0-9.76422-1.035921-12.255743-3.32026s-3.734628-5.19023-3.734628-8.924858c0-3.527444 1.243105-6.433335 3.734628-8.728299 2.491523-2.284339 6.64052-3.527444 12.255743-3.527444h3.734629V477.230239h-3.734629c-5.822408 0-9.76422-1.035921-12.255743-3.32026-2.491523-2.284339-3.734628-5.19023-3.734628-8.924858 0-3.739941 1.243105-6.64052 3.734628-8.930171 2.491523-2.284339 6.433335-3.32026 12.255743-3.32026h106.694557v37.36222c0 5.811783-1.035921 9.966092-3.330884 12.457615-2.077155 2.491523-4.983046 3.734628-8.51049 3.734628s-6.433335-1.243105-8.717674-3.734628c-2.077155-2.491523-3.32026-6.64052-3.32026-12.457615v-12.866671H780.393866v35.497562h20.968105l26.572703-0.414368 1.450289 23.868683-28.022992 1.035921H780.393866z m-662.378551-1.662786H61.140592v36.533483h4.148997c6.433335 0 11.002013 1.243105 13.70072 3.734628 2.698707 2.284339 4.148997 5.408039 4.148997 9.142668s-1.450289 6.64052-4.148997 8.924858c-2.698707 2.491523-7.267385 3.527444-13.70072 3.527444H32.703231c-6.226151 0-10.789516-1.035921-13.70072-3.527444-2.698707-2.284339-3.947125-5.397414-3.947125-9.132043 0-4.563365 2.077155-8.101434 6.226151-10.800141 2.077155-1.243105 6.64052-1.86997 13.28104-1.86997V473.283114c-4.563365-0.414368-8.090809-1.86997-10.587645-4.148996-2.284339-2.284339-3.527444-5.19023-3.527444-8.717674 0-3.734628 1.455602-6.853016 4.154309-9.132043s7.272697-3.527444 13.706033-3.527444l26.981759 0.207184c6.433335 0 11.002013 1.035921 13.70072 3.32026 2.698707 2.491523 4.148997 5.397414 4.148997 9.132043 0 3.947125-1.450289 7.0602-4.148997 9.339226s-7.267385 3.527444-13.70072 3.527444h-4.148997v36.953164h56.874723V473.283114h-4.148997c-6.433335 0-11.002013-1.243105-13.70072-3.527444s-4.148997-5.397414-4.148997-9.339226c0-3.734628 1.450289-6.853016 4.148997-9.132043s7.267385-3.527444 13.70072-3.527444l26.987072 0.207184c6.433335 0 11.002013 1.035921 13.70072 3.32026 2.698707 2.491523 4.148997 5.397414 4.148997 9.132043 0 3.527444-1.243105 6.433335-3.527445 8.717674-2.491523 2.284339-6.018967 3.739941-10.587644 4.148996v98.80562c6.853016 0 11.209197 0.828737 13.073855 1.86997 4.361493 2.698707 6.433335 6.236776 6.433335 11.007326 0 3.734628-1.450289 6.64052-4.148996 8.924858-2.698707 2.491523-7.267385 3.527444-13.493536 3.527444h-32.59167c-6.433335 0-11.002013-1.035921-13.70072-3.527444-2.698707-2.284339-4.148997-5.397414-4.148997-9.132043s1.450289-6.651144 4.148997-8.935483c2.698707-2.491523 7.267385-3.734628 13.70072-3.734628h4.148996v-36.533483h0.005313z m666.325676-112.501027l31.550437 5.397414c3.734628 0.621553 6.226151 2.077155 7.469256 4.148997 1.035921 1.657474 1.25373 3.527444 0.621553 5.604599a8.127996 8.127996 0 0 1-3.527444 4.35618c-1.450289 0.828737-3.734628 1.041233-7.054888 0.414369l-31.550437-5.397414c-3.734628-0.621553-6.226151-1.86997-7.469257-3.941813-1.035921-1.86997-1.243105-3.734628-0.621552-5.604598 0.621553-1.864658 1.657474-3.527444 3.527444-4.361494 1.450289-0.823424 3.734628-1.035921 7.054888-0.61624z" p-id="2806"></path></svg>