<?xml version="1.0" standalone="no"?><!DOCTYPE svg PUBLIC "-//W3C//DTD SVG 1.1//EN" "http://www.w3.org/Graphics/SVG/1.1/DTD/svg11.dtd"><svg t="1751978816520" class="icon" viewBox="0 0 1024 1024" version="1.1" xmlns="http://www.w3.org/2000/svg" p-id="1507" width="256" height="256" xmlns:xlink="http://www.w3.org/1999/xlink"><path d="M700.5952 13.568h211.9168c0.0512 15.8976-0.0768 31.8208 0.0768 47.744-17.9456 0.768-36.3008 2.7904-52.8384 10.2912a74.752 74.752 0 0 0-38.0416 38.2208c-85.888 201.9072-171.7248 403.84-257.536 605.7984-1.4848 3.328-2.6624 6.7328-4.4032 9.9584-30.72-0.384-61.44-0.0512-92.16-0.1792-13.568-26.9312-26.9312-54.016-40.6016-80.896-15.6672 42.0096-31.4112 83.968-47.104 125.952h304.0512c18.56 0.256 37.6832-0.512 55.04-7.7568 28.8512-11.5968 51.8144-33.9968 70.5024-58.2912 22.5536-29.44 39.68-62.5408 54.9376-96.2048 17.1264-0.128 34.2272 0.0512 51.328 0.0256-32.4352 69.2736-65.024 138.496-97.7664 207.616H117.376c5.6832-14.848 11.1104-29.7984 17.2032-44.4928 0.3584-1.536 2.2528-1.1264 3.4048-1.28 29.1584-0.2048 58.496-1.3312 87.1168-7.424 14.8736-3.4816 30.2848-8.1408 41.728-18.7648 6.0672-5.7856 7.936-14.2336 9.984-22.016l82.7904-221.4144C301.2608 376.1664 242.7392 251.9552 184.3712 127.6672c-4.7104-10.88-10.9056-21.632-20.6592-28.7232C143.5136 83.84 117.248 81.92 92.928 80.9472V27.52h245.9904v53.4272c-10.7008 0.6656-22.0416 0.512-31.7184 5.7856a11.904 11.904 0 0 0-6.4 13.1584c1.536 8.4992 8.2432 14.592 11.648 22.272 34.6368 74.5728 69.248 149.1456 103.9872 223.7184 17.408-48.6656 34.816-97.3312 52.2752-145.9456 2.56-6.7584 3.4816-14.592 0.5376-21.376-2.304-5.376-7.5008-8.704-12.6464-10.9056-9.984-4.1216-20.992-4.096-31.5648-4.864 5.4016-15.0272 10.8544-30.0544 16.4608-45.0048 1.28-0.8448 3.072-0.2048 4.608-0.4096 83.1744 0.0512 166.4 0 249.6 0.0512-5.76 15.104-11.4688 30.208-17.152 45.312-20.0448 0.9472-40.704 1.4336-59.4944 9.2672-8.6272 3.6096-16.768 9.1136-21.8624 17.1008-3.5328 5.8368-5.7344 12.3648-8.0896 18.7136-34.7648 94.8224-69.8624 189.4912-104.2176 284.4416 19.0464 43.0336 38.8864 85.7088 58.2912 128.5632 70.528-166.528 141.056-333.0816 211.6352-499.584 4.7616-10.0096 12.5184-19.1488 13.1072-30.6688 0.5888-9.0112-6.0928-16.7936-13.824-20.48-16.7168-7.7312-35.4816-8.1152-53.5296-8.7552V13.5424zM828.8256 910.2592c22.272 23.04 44.3648 46.2592 66.4064 69.504 0-21.6064 0.1024-43.2384 0.0768-64.8448l11.4432-0.0768v92.5696c-22.272-22.9376-44.2368-46.1824-66.4064-69.248 0.0256 21.76-0.0512 43.52-0.0512 65.28h-11.4688v-93.184zM180.6848 913.408c24.5248-3.7632 50.4832 15.4368 52.6592 40.448a45.6704 45.6704 0 0 1-13.952 39.1168c-17.2288 16.8448-48.2048 16.5376-64.9472-0.9216a45.2352 45.2352 0 0 1-13.6192-33.9712c0.256-21.9392 18.3552-41.5232 39.8592-44.6464z m0 11.3408c-14.2592 2.3296-25.8816 14.8736-27.904 29.0816-2.7136 16.128 7.2704 33.536 22.8352 38.784a34.7136 34.7136 0 0 0 39.0144-11.3408c11.3152-14.208 9.3952-37.12-4.5312-48.9216-7.8336-7.1168-19.1488-9.472-29.4144-7.6032zM357.8368 918.1952c12.5696-9.4464 33.1008-5.5296 40.3712 8.704l-9.088 5.1456c-5.4528-8.4992-18.7392-10.5984-26.0608-3.3536-3.0976 2.2528-2.7648 6.4-2.432 9.8304 0.8704 4.4544 5.632 6.3232 9.1136 8.448 9.0112 4.7104 19.8144 7.424 26.1376 16.0512 7.0656 9.5744 5.888 23.8592-1.792 32.7424-8.0384 9.728-22.7584 12.1088-34.0224 7.0144-8.6272-4.2752-13.952-13.312-15.6928-22.528 3.8656-0.9216 7.7568-1.7664 11.6224-2.6368 0.384 8.448 6.9376 16.9472 15.8464 17.1008 12.0064 1.3056 21.5552-14.3104 14.5664-24.2688-7.4752-10.1632-21.888-10.3168-30.464-19.0976-10.1376-8.2688-9.1136-26.112 1.8944-33.152zM767.9488 913.3568c16.0768-1.9968 32.6912 5.4016 42.5472 18.1248 14.2336 17.792 11.9552 46.208-4.9152 61.5168-9.6512 9.5232-23.808 13.4656-37.12 12.032a45.0048 45.0048 0 0 1-33.0752-18.8928 47.0528 47.0528 0 0 1-6.4256-39.9872c5.0432-17.3568 21.1712-30.5152 38.9888-32.7936z m-1.9712 11.5456c-17.7152 3.0208-30.3872 21.888-27.264 39.4496 1.9712 16.896 17.9712 30.6432 34.9184 30.3104 11.5712 0.2048 22.6048-6.3488 28.8256-15.9232 9.472-13.7216 6.9888-33.9968-5.2224-45.312-7.9872-8.0896-20.3264-10.8032-31.232-8.5248zM102.144 914.8416h10.9824v78.4896h27.264v10.112H102.144v-88.576zM242.2272 914.944c3.8656-0.0512 7.7568-0.0256 11.648-0.0256 0 17.408-0.0512 34.8672 0.0256 52.3008 0.1792 7.68 1.1264 16.1024 6.5536 22.016 8.6272 8.448 25.5488 7.2448 31.5648-3.712 3.0464-5.1712 3.9424-11.264 3.84-17.152-0.0512-17.8176-0.0512-35.6352-0.0512-53.4528h11.6224v54.5536c0 8.2432-1.4336 16.9728-6.7072 23.6032-11.3408 15.7184-37.632 16.64-50.048 1.792-5.888-6.1952-8.3456-14.9248-8.4224-23.296-0.0512-18.8928 0-37.76 0-56.6528zM321.7408 914.8672c3.8144-0.0512 7.6288-0.0256 11.4432 0v88.576h-11.4688v-88.576zM436.4544 914.944c4.1984-0.128 8.3968-0.128 12.5952-0.1024 8.8064 21.5296 17.4848 43.1104 26.112 64.7168 8.6272-21.504 17.5104-42.9568 25.9328-64.5376 4.3008-0.3584 8.6272-0.128 12.9536-0.1792-12.8512 31.3344-25.7792 62.6432-38.7584 93.9264-13.2096-31.1808-25.9328-62.5408-38.8352-93.824zM519.3216 914.8416c3.7888 0.0512 7.6032 0.0768 11.4432 0.0768 0.128 17.152-0.0256 34.3296 0.128 51.5072 0.256 8.1408 0.896 17.3824 7.1168 23.424a22.016 22.016 0 0 0 26.2656 1.0496c4.48-3.1744 6.912-8.448 7.8848-13.696 1.536-9.0368 0.9728-18.2528 1.0752-27.392 0.0768-11.6224 0.0768-23.2448 0.0768-34.8672 3.6608-0.0512 7.3216-0.0512 11.008-0.0256 0.1536 16.128 0.0256 32.256 0.0768 48.384 0.256 9.984-0.0512 20.864-6.144 29.312-10.6752 15.3856-35.2256 17.0496-48.7168 4.5568-6.7328-6.2464-10.1376-15.4624-10.1888-24.5504-0.1024-19.2768 0-38.528-0.0256-57.7792zM598.7072 914.9184l11.9296-0.0768v88.576h-12.0064c-0.0512-29.4912 0.1024-58.9824 0.0768-88.4992zM617.8048 914.9184c35.712 0.0256 71.424-0.0768 107.1616-0.0512v10.5984c-6.8608 0.0512-13.696 0-20.5312 0-0.0512 26.0096 0 51.968 0 77.9776h-11.9808c0-25.984 0.0768-51.968-0.0256-77.952h-42.0608v77.952h-11.008v-77.952h-21.5552v-10.5728z" fill="#2c2c2c" p-id="1508"></path></svg>