<?xml version="1.0" standalone="no"?><!DOCTYPE svg PUBLIC "-//W3C//DTD SVG 1.1//EN" "http://www.w3.org/Graphics/SVG/1.1/DTD/svg11.dtd"><svg t="1751978945134" class="icon" viewBox="0 0 6535 1024" version="1.1" xmlns="http://www.w3.org/2000/svg" p-id="7056" xmlns:xlink="http://www.w3.org/1999/xlink" width="1633.75" height="256"><path d="M858.520422 20.089741l-844.591371 2.294919 98.509683 107.235282v784.862129l-73.007862 102.706807 447.202302 0.662704-80.604411-94.496644-8.369703-282.655417 431.211506 2.282646c130.699904-41.995781 265.081496-131.558965 271.512176-312.575264C1098.370086 154.974497 987.36721 42.462128 858.520422 20.089741z m-146.040269 558.990604L381.668265 576.797699V72.566059h323.988494c110.745158 47.677852 135.81745 147.697028 136.897412 262.393864 2.294919 140.689549-54.746692 185.557047-130.049473 244.120422zM2154.854842 1015.348035l383.41093-3.031256-349.944391-292.080537h-292.080537l-102.964526-84.678812 329.020135 1.730394c130.687632-41.983509 265.081496-131.546692 271.512176-312.562992-2.049473-175.407862-113.027804-287.944775-241.850048-310.292617l-844.591371 2.270374 98.509684 107.247555v784.813039l-73.007862 102.71908 447.177756 0.650431-80.60441-94.496644-8.381975-282.643145h1.804027z m-479.772963-444.256952V66.859444h323.988495c110.732886 47.677852 135.805177 147.697028 136.897411 262.381591 2.270374 140.689549-54.758965 185.569319-130.086289 244.132695zM3924.973346 1005.726558c-43.358006-30.423011-108.339789-21.844679-130.086289-91.256759l-501.936721-898.933078h-385.558581l62.085522 24.802301 145.537105 187.373346v47.861937l-344.483222 700.441035-91.281304 27.379483 209.856184 4.565292-34.227421-31.907958c-17.488015-26.422244 6.136146-42.584851 9.130585-63.815915l91.25676-187.091084 426.658485-2.294918L3507.420901 916.740173l4.565293 66.920805-73.007862 22.090125zM2982.265005 661.108341l177.211889-323.80441 184.513902 321.975839zM6532.418025 1007.690125c-43.345733-30.423011-108.327517-21.844679-130.08629-91.269032l-501.936721-898.94535h-385.595398l62.073251 24.814573 145.549377 187.373347v47.861936l-344.495494 700.441036-91.269032 27.391754 209.856184 4.565293-34.215148-31.907958c-17.488015-26.422244 6.136146-42.572579 9.130584-63.877277l91.25676-187.078811 426.658485-2.294919 125.496452 193.902205 4.553021 66.908533-73.007862 22.090125z m-942.708341-344.630489l177.224161-323.804411L5951.447747 661.231064zM4745.228763 9.817833L4058.311793 6.136146l-1.828572 20.114285c101.086865 3.043528 110.266539 30.680729 111.444679 75.020518v808.609013c-0.257718 59.999233-8.664238 71.559732-113.371428 79.15628l0.11045 21.451965 688.745542-1.828571c233.063087-70.835666 365.247939-210.727517 405.562416-413.441228l1.828572-177.457334C5107.163183 190.220518 4966.412272 59.815149 4745.228763 9.817833z m-83.537488 926.999808c-44.425695 21.881496-122.980633 13.683605-213.537871 13.376798l0.687248-874.830297c100.63279-2.024928 177.187344-1.472675 215.5628 12.272291 53.654458 15.205369 146.580249 73.53557 146.567977 156.177182l2.454458 516.577564c-4.381208 64.012272-51.114094 132.135762-151.72234 176.451007z" fill="#231815" p-id="7057"></path></svg>